<?xml version="1.0" encoding="UTF-8" standalone="no" ?>
<!DOCTYPE svg PUBLIC "-//W3C//DTD SVG 1.1//EN" "http://www.w3.org/Graphics/SVG/1.1/DTD/svg11.dtd">
<svg xmlns="http://www.w3.org/2000/svg" xmlns:xlink="http://www.w3.org/1999/xlink" version="1.1" width="399.99999999999994" height="199.99999999999997" viewBox="62 21.28928609426532 321.25311203319507 160.62655601659753" xml:space="preserve">
<desc>Created with Fabric.js 5.3.0</desc>
<defs>
</defs>
<g transform="matrix(0.9790794806 0 0 0.9790794806 141 101.6025641026)" id="jxLdEG7cFCNVnPRCaeNzU"  >
<path style="stroke: rgb(255,255,255); stroke-width: 8; stroke-dasharray: none; stroke-linecap: butt; stroke-dashoffset: 0; stroke-linejoin: miter; stroke-miterlimit: 4; fill: rgb(255,255,255); fill-rule: nonzero; opacity: 1;" vector-effect="non-scaling-stroke"  transform=" translate(0, 0)" d="M 0 -76.60257 C 42.28462 -76.60257 76.60257 -42.28462 76.60257 0 C 76.60257 42.28462 42.28462 76.60257 0 76.60257 C -42.28462 76.60257 -76.60257 42.28462 -76.60257 0 C -76.60257 -42.28462 -42.28462 -76.60257 0 -76.60257 z" stroke-linecap="round" />
</g>
<g transform="matrix(0.9790794806 0 0 0.9790794806 304.2531120332 101.6025641026)" id="aajDHc8UtY4XgA7qfNUXE"  >
<path style="stroke: rgb(255,255,255); stroke-width: 8; stroke-dasharray: none; stroke-linecap: butt; stroke-dashoffset: 0; stroke-linejoin: miter; stroke-miterlimit: 4; fill: rgb(255,255,255); fill-rule: nonzero; opacity: 1;" vector-effect="non-scaling-stroke"  transform=" translate(0, 0)" d="M 0 -76.60257 C 42.28462 -76.60257 76.60257 -42.28462 76.60257 0 C 76.60257 42.28462 42.28462 76.60257 0 76.60257 C -42.28462 76.60257 -76.60257 42.28462 -76.60257 0 C -76.60257 -42.28462 -42.28462 -76.60257 0 -76.60257 z" stroke-linecap="round" />
</g>
</svg>